<mxfile host="Electron" agent="Mozilla/5.0 (Macintosh; Intel Mac OS X 10_15_7) AppleWebKit/537.36 (KHTML, like Gecko) draw.io/24.7.17 Chrome/128.0.6613.36 Electron/32.0.1 Safari/537.36" version="24.7.17" pages="3">
  <diagram name="step1" id="snhxxDHDTNbqBV9duYii">
    <mxGraphModel dx="1269" dy="1062" grid="1" gridSize="10" guides="1" tooltips="1" connect="1" arrows="1" fold="1" page="1" pageScale="1" pageWidth="850" pageHeight="1100" math="1" shadow="0">
      <root>
        <mxCell id="0" />
        <mxCell id="1" parent="0" />
        <mxCell id="NtdU-sKQ8i9bs_j4zmNI-11" value="Compute dot product" style="text;html=1;align=center;verticalAlign=middle;resizable=0;points=[];autosize=1;strokeColor=none;fillColor=none;" vertex="1" parent="1">
          <mxGeometry x="175" y="145" width="140" height="30" as="geometry" />
        </mxCell>
        <mxCell id="NtdU-sKQ8i9bs_j4zmNI-294" value="" style="rounded=1;whiteSpace=wrap;html=1;strokeWidth=1;strokeColor=#d6b656;fillColor=#fff2cc;" vertex="1" parent="1">
          <mxGeometry x="50" y="65" width="415" height="80" as="geometry" />
        </mxCell>
        <mxCell id="NtdU-sKQ8i9bs_j4zmNI-295" value="&lt;span style=&quot;background-color: initial;&quot;&gt;\(\cdot\)&lt;/span&gt;" style="text;html=1;align=center;verticalAlign=middle;resizable=0;points=[];autosize=1;strokeColor=none;fillColor=none;" vertex="1" parent="1">
          <mxGeometry x="260" y="90" width="60" height="30" as="geometry" />
        </mxCell>
        <mxCell id="NtdU-sKQ8i9bs_j4zmNI-296" value="" style="rounded=0;whiteSpace=wrap;html=1;fillColor=#E6D0DE;" vertex="1" parent="1">
          <mxGeometry x="80" y="100" width="10" height="10" as="geometry" />
        </mxCell>
        <mxCell id="NtdU-sKQ8i9bs_j4zmNI-297" value="=" style="text;html=1;align=center;verticalAlign=middle;resizable=0;points=[];autosize=1;strokeColor=none;fillColor=none;" vertex="1" parent="1">
          <mxGeometry x="96" y="90" width="30" height="30" as="geometry" />
        </mxCell>
        <mxCell id="NtdU-sKQ8i9bs_j4zmNI-298" value="" style="rounded=0;whiteSpace=wrap;html=1;" vertex="1" parent="1">
          <mxGeometry x="130" y="85" width="10" height="10" as="geometry" />
        </mxCell>
        <mxCell id="NtdU-sKQ8i9bs_j4zmNI-299" value="" style="rounded=0;whiteSpace=wrap;html=1;" vertex="1" parent="1">
          <mxGeometry x="140" y="85" width="10" height="10" as="geometry" />
        </mxCell>
        <mxCell id="NtdU-sKQ8i9bs_j4zmNI-300" value="" style="rounded=0;whiteSpace=wrap;html=1;" vertex="1" parent="1">
          <mxGeometry x="150" y="85" width="10" height="10" as="geometry" />
        </mxCell>
        <mxCell id="NtdU-sKQ8i9bs_j4zmNI-301" value="" style="rounded=0;whiteSpace=wrap;html=1;" vertex="1" parent="1">
          <mxGeometry x="160" y="85" width="10" height="10" as="geometry" />
        </mxCell>
        <mxCell id="NtdU-sKQ8i9bs_j4zmNI-302" value="" style="rounded=0;whiteSpace=wrap;html=1;" vertex="1" parent="1">
          <mxGeometry x="170" y="85" width="10" height="10" as="geometry" />
        </mxCell>
        <mxCell id="NtdU-sKQ8i9bs_j4zmNI-303" value="" style="rounded=0;whiteSpace=wrap;html=1;" vertex="1" parent="1">
          <mxGeometry x="180" y="85" width="10" height="10" as="geometry" />
        </mxCell>
        <mxCell id="NtdU-sKQ8i9bs_j4zmNI-304" value="" style="rounded=0;whiteSpace=wrap;html=1;" vertex="1" parent="1">
          <mxGeometry x="190" y="85" width="10" height="10" as="geometry" />
        </mxCell>
        <mxCell id="NtdU-sKQ8i9bs_j4zmNI-305" value="" style="rounded=0;whiteSpace=wrap;html=1;" vertex="1" parent="1">
          <mxGeometry x="200" y="85" width="10" height="10" as="geometry" />
        </mxCell>
        <mxCell id="NtdU-sKQ8i9bs_j4zmNI-306" value="" style="rounded=0;whiteSpace=wrap;html=1;" vertex="1" parent="1">
          <mxGeometry x="210" y="85" width="10" height="10" as="geometry" />
        </mxCell>
        <mxCell id="NtdU-sKQ8i9bs_j4zmNI-307" value="" style="rounded=0;whiteSpace=wrap;html=1;" vertex="1" parent="1">
          <mxGeometry x="220" y="85" width="10" height="10" as="geometry" />
        </mxCell>
        <mxCell id="NtdU-sKQ8i9bs_j4zmNI-308" value="" style="rounded=0;whiteSpace=wrap;html=1;" vertex="1" parent="1">
          <mxGeometry x="230" y="85" width="10" height="10" as="geometry" />
        </mxCell>
        <mxCell id="NtdU-sKQ8i9bs_j4zmNI-309" value="" style="rounded=0;whiteSpace=wrap;html=1;" vertex="1" parent="1">
          <mxGeometry x="240" y="85" width="10" height="10" as="geometry" />
        </mxCell>
        <mxCell id="NtdU-sKQ8i9bs_j4zmNI-310" value="" style="rounded=0;whiteSpace=wrap;html=1;" vertex="1" parent="1">
          <mxGeometry x="250" y="85" width="10" height="10" as="geometry" />
        </mxCell>
        <mxCell id="NtdU-sKQ8i9bs_j4zmNI-311" value="" style="rounded=0;whiteSpace=wrap;html=1;" vertex="1" parent="1">
          <mxGeometry x="260" y="85" width="10" height="10" as="geometry" />
        </mxCell>
        <mxCell id="NtdU-sKQ8i9bs_j4zmNI-312" value="" style="rounded=0;whiteSpace=wrap;html=1;" vertex="1" parent="1">
          <mxGeometry x="270" y="85" width="10" height="10" as="geometry" />
        </mxCell>
        <mxCell id="NtdU-sKQ8i9bs_j4zmNI-313" value="" style="rounded=0;whiteSpace=wrap;html=1;" vertex="1" parent="1">
          <mxGeometry x="280" y="85" width="10" height="10" as="geometry" />
        </mxCell>
        <mxCell id="NtdU-sKQ8i9bs_j4zmNI-314" value="" style="rounded=0;whiteSpace=wrap;html=1;" vertex="1" parent="1">
          <mxGeometry x="290" y="85" width="10" height="10" as="geometry" />
        </mxCell>
        <mxCell id="NtdU-sKQ8i9bs_j4zmNI-315" value="" style="rounded=0;whiteSpace=wrap;html=1;" vertex="1" parent="1">
          <mxGeometry x="300" y="85" width="10" height="10" as="geometry" />
        </mxCell>
        <mxCell id="NtdU-sKQ8i9bs_j4zmNI-316" value="" style="rounded=0;whiteSpace=wrap;html=1;" vertex="1" parent="1">
          <mxGeometry x="310" y="85" width="10" height="10" as="geometry" />
        </mxCell>
        <mxCell id="NtdU-sKQ8i9bs_j4zmNI-317" value="" style="rounded=0;whiteSpace=wrap;html=1;" vertex="1" parent="1">
          <mxGeometry x="320" y="85" width="10" height="10" as="geometry" />
        </mxCell>
        <mxCell id="NtdU-sKQ8i9bs_j4zmNI-318" value="" style="rounded=0;whiteSpace=wrap;html=1;" vertex="1" parent="1">
          <mxGeometry x="330" y="85" width="10" height="10" as="geometry" />
        </mxCell>
        <mxCell id="NtdU-sKQ8i9bs_j4zmNI-319" value="" style="rounded=0;whiteSpace=wrap;html=1;" vertex="1" parent="1">
          <mxGeometry x="340" y="85" width="10" height="10" as="geometry" />
        </mxCell>
        <mxCell id="NtdU-sKQ8i9bs_j4zmNI-320" value="" style="rounded=0;whiteSpace=wrap;html=1;" vertex="1" parent="1">
          <mxGeometry x="350" y="85" width="10" height="10" as="geometry" />
        </mxCell>
        <mxCell id="NtdU-sKQ8i9bs_j4zmNI-321" value="" style="rounded=0;whiteSpace=wrap;html=1;" vertex="1" parent="1">
          <mxGeometry x="360" y="85" width="10" height="10" as="geometry" />
        </mxCell>
        <mxCell id="NtdU-sKQ8i9bs_j4zmNI-322" value="" style="rounded=0;whiteSpace=wrap;html=1;" vertex="1" parent="1">
          <mxGeometry x="370" y="85" width="10" height="10" as="geometry" />
        </mxCell>
        <mxCell id="NtdU-sKQ8i9bs_j4zmNI-323" value="" style="rounded=0;whiteSpace=wrap;html=1;" vertex="1" parent="1">
          <mxGeometry x="380" y="85" width="10" height="10" as="geometry" />
        </mxCell>
        <mxCell id="NtdU-sKQ8i9bs_j4zmNI-324" value="" style="rounded=0;whiteSpace=wrap;html=1;" vertex="1" parent="1">
          <mxGeometry x="390" y="85" width="10" height="10" as="geometry" />
        </mxCell>
        <mxCell id="NtdU-sKQ8i9bs_j4zmNI-325" value="" style="rounded=0;whiteSpace=wrap;html=1;" vertex="1" parent="1">
          <mxGeometry x="400" y="85" width="10" height="10" as="geometry" />
        </mxCell>
        <mxCell id="NtdU-sKQ8i9bs_j4zmNI-326" value="" style="rounded=0;whiteSpace=wrap;html=1;" vertex="1" parent="1">
          <mxGeometry x="410" y="85" width="10" height="10" as="geometry" />
        </mxCell>
        <mxCell id="NtdU-sKQ8i9bs_j4zmNI-327" value="" style="rounded=0;whiteSpace=wrap;html=1;" vertex="1" parent="1">
          <mxGeometry x="420" y="85" width="10" height="10" as="geometry" />
        </mxCell>
        <mxCell id="NtdU-sKQ8i9bs_j4zmNI-328" value="" style="rounded=0;whiteSpace=wrap;html=1;" vertex="1" parent="1">
          <mxGeometry x="430" y="85" width="10" height="10" as="geometry" />
        </mxCell>
        <mxCell id="NtdU-sKQ8i9bs_j4zmNI-329" value="" style="rounded=0;whiteSpace=wrap;html=1;" vertex="1" parent="1">
          <mxGeometry x="440" y="85" width="10" height="10" as="geometry" />
        </mxCell>
        <mxCell id="NtdU-sKQ8i9bs_j4zmNI-330" value="" style="rounded=0;whiteSpace=wrap;html=1;" vertex="1" parent="1">
          <mxGeometry x="130" y="115" width="10" height="10" as="geometry" />
        </mxCell>
        <mxCell id="NtdU-sKQ8i9bs_j4zmNI-331" value="" style="rounded=0;whiteSpace=wrap;html=1;" vertex="1" parent="1">
          <mxGeometry x="140" y="115" width="10" height="10" as="geometry" />
        </mxCell>
        <mxCell id="NtdU-sKQ8i9bs_j4zmNI-332" value="" style="rounded=0;whiteSpace=wrap;html=1;" vertex="1" parent="1">
          <mxGeometry x="150" y="115" width="10" height="10" as="geometry" />
        </mxCell>
        <mxCell id="NtdU-sKQ8i9bs_j4zmNI-333" value="" style="rounded=0;whiteSpace=wrap;html=1;" vertex="1" parent="1">
          <mxGeometry x="160" y="115" width="10" height="10" as="geometry" />
        </mxCell>
        <mxCell id="NtdU-sKQ8i9bs_j4zmNI-334" value="" style="rounded=0;whiteSpace=wrap;html=1;" vertex="1" parent="1">
          <mxGeometry x="170" y="115" width="10" height="10" as="geometry" />
        </mxCell>
        <mxCell id="NtdU-sKQ8i9bs_j4zmNI-335" value="" style="rounded=0;whiteSpace=wrap;html=1;" vertex="1" parent="1">
          <mxGeometry x="180" y="115" width="10" height="10" as="geometry" />
        </mxCell>
        <mxCell id="NtdU-sKQ8i9bs_j4zmNI-336" value="" style="rounded=0;whiteSpace=wrap;html=1;" vertex="1" parent="1">
          <mxGeometry x="190" y="115" width="10" height="10" as="geometry" />
        </mxCell>
        <mxCell id="NtdU-sKQ8i9bs_j4zmNI-337" value="" style="rounded=0;whiteSpace=wrap;html=1;" vertex="1" parent="1">
          <mxGeometry x="200" y="115" width="10" height="10" as="geometry" />
        </mxCell>
        <mxCell id="NtdU-sKQ8i9bs_j4zmNI-338" value="" style="rounded=0;whiteSpace=wrap;html=1;" vertex="1" parent="1">
          <mxGeometry x="210" y="115" width="10" height="10" as="geometry" />
        </mxCell>
        <mxCell id="NtdU-sKQ8i9bs_j4zmNI-339" value="" style="rounded=0;whiteSpace=wrap;html=1;" vertex="1" parent="1">
          <mxGeometry x="220" y="115" width="10" height="10" as="geometry" />
        </mxCell>
        <mxCell id="NtdU-sKQ8i9bs_j4zmNI-340" value="" style="rounded=0;whiteSpace=wrap;html=1;" vertex="1" parent="1">
          <mxGeometry x="230" y="115" width="10" height="10" as="geometry" />
        </mxCell>
        <mxCell id="NtdU-sKQ8i9bs_j4zmNI-341" value="" style="rounded=0;whiteSpace=wrap;html=1;" vertex="1" parent="1">
          <mxGeometry x="240" y="115" width="10" height="10" as="geometry" />
        </mxCell>
        <mxCell id="NtdU-sKQ8i9bs_j4zmNI-342" value="" style="rounded=0;whiteSpace=wrap;html=1;" vertex="1" parent="1">
          <mxGeometry x="250" y="115" width="10" height="10" as="geometry" />
        </mxCell>
        <mxCell id="NtdU-sKQ8i9bs_j4zmNI-343" value="" style="rounded=0;whiteSpace=wrap;html=1;" vertex="1" parent="1">
          <mxGeometry x="260" y="115" width="10" height="10" as="geometry" />
        </mxCell>
        <mxCell id="NtdU-sKQ8i9bs_j4zmNI-344" value="" style="rounded=0;whiteSpace=wrap;html=1;" vertex="1" parent="1">
          <mxGeometry x="270" y="115" width="10" height="10" as="geometry" />
        </mxCell>
        <mxCell id="NtdU-sKQ8i9bs_j4zmNI-345" value="" style="rounded=0;whiteSpace=wrap;html=1;" vertex="1" parent="1">
          <mxGeometry x="280" y="115" width="10" height="10" as="geometry" />
        </mxCell>
        <mxCell id="NtdU-sKQ8i9bs_j4zmNI-346" value="" style="rounded=0;whiteSpace=wrap;html=1;" vertex="1" parent="1">
          <mxGeometry x="290" y="115" width="10" height="10" as="geometry" />
        </mxCell>
        <mxCell id="NtdU-sKQ8i9bs_j4zmNI-347" value="" style="rounded=0;whiteSpace=wrap;html=1;" vertex="1" parent="1">
          <mxGeometry x="300" y="115" width="10" height="10" as="geometry" />
        </mxCell>
        <mxCell id="NtdU-sKQ8i9bs_j4zmNI-348" value="" style="rounded=0;whiteSpace=wrap;html=1;" vertex="1" parent="1">
          <mxGeometry x="310" y="115" width="10" height="10" as="geometry" />
        </mxCell>
        <mxCell id="NtdU-sKQ8i9bs_j4zmNI-349" value="" style="rounded=0;whiteSpace=wrap;html=1;" vertex="1" parent="1">
          <mxGeometry x="320" y="115" width="10" height="10" as="geometry" />
        </mxCell>
        <mxCell id="NtdU-sKQ8i9bs_j4zmNI-350" value="" style="rounded=0;whiteSpace=wrap;html=1;" vertex="1" parent="1">
          <mxGeometry x="330" y="115" width="10" height="10" as="geometry" />
        </mxCell>
        <mxCell id="NtdU-sKQ8i9bs_j4zmNI-351" value="" style="rounded=0;whiteSpace=wrap;html=1;" vertex="1" parent="1">
          <mxGeometry x="340" y="115" width="10" height="10" as="geometry" />
        </mxCell>
        <mxCell id="NtdU-sKQ8i9bs_j4zmNI-352" value="" style="rounded=0;whiteSpace=wrap;html=1;" vertex="1" parent="1">
          <mxGeometry x="350" y="115" width="10" height="10" as="geometry" />
        </mxCell>
        <mxCell id="NtdU-sKQ8i9bs_j4zmNI-353" value="" style="rounded=0;whiteSpace=wrap;html=1;" vertex="1" parent="1">
          <mxGeometry x="360" y="115" width="10" height="10" as="geometry" />
        </mxCell>
        <mxCell id="NtdU-sKQ8i9bs_j4zmNI-354" value="" style="rounded=0;whiteSpace=wrap;html=1;" vertex="1" parent="1">
          <mxGeometry x="370" y="115" width="10" height="10" as="geometry" />
        </mxCell>
        <mxCell id="NtdU-sKQ8i9bs_j4zmNI-355" value="" style="rounded=0;whiteSpace=wrap;html=1;" vertex="1" parent="1">
          <mxGeometry x="380" y="115" width="10" height="10" as="geometry" />
        </mxCell>
        <mxCell id="NtdU-sKQ8i9bs_j4zmNI-356" value="" style="rounded=0;whiteSpace=wrap;html=1;" vertex="1" parent="1">
          <mxGeometry x="390" y="115" width="10" height="10" as="geometry" />
        </mxCell>
        <mxCell id="NtdU-sKQ8i9bs_j4zmNI-357" value="" style="rounded=0;whiteSpace=wrap;html=1;" vertex="1" parent="1">
          <mxGeometry x="400" y="115" width="10" height="10" as="geometry" />
        </mxCell>
        <mxCell id="NtdU-sKQ8i9bs_j4zmNI-358" value="" style="rounded=0;whiteSpace=wrap;html=1;" vertex="1" parent="1">
          <mxGeometry x="410" y="115" width="10" height="10" as="geometry" />
        </mxCell>
        <mxCell id="NtdU-sKQ8i9bs_j4zmNI-359" value="" style="rounded=0;whiteSpace=wrap;html=1;" vertex="1" parent="1">
          <mxGeometry x="420" y="115" width="10" height="10" as="geometry" />
        </mxCell>
        <mxCell id="NtdU-sKQ8i9bs_j4zmNI-360" value="" style="rounded=0;whiteSpace=wrap;html=1;" vertex="1" parent="1">
          <mxGeometry x="430" y="115" width="10" height="10" as="geometry" />
        </mxCell>
        <mxCell id="NtdU-sKQ8i9bs_j4zmNI-361" value="" style="rounded=0;whiteSpace=wrap;html=1;" vertex="1" parent="1">
          <mxGeometry x="440" y="115" width="10" height="10" as="geometry" />
        </mxCell>
        <mxCell id="NtdU-sKQ8i9bs_j4zmNI-362" value="&lt;font style=&quot;font-size: 10px;&quot;&gt;1\(\times\)32&lt;/font&gt;" style="text;html=1;align=center;verticalAlign=middle;resizable=0;points=[];autosize=1;strokeColor=none;fillColor=none;" vertex="1" parent="1">
          <mxGeometry x="250" y="60" width="80" height="30" as="geometry" />
        </mxCell>
        <mxCell id="NtdU-sKQ8i9bs_j4zmNI-363" value="&lt;font style=&quot;font-size: 10px;&quot;&gt;1\(\times\)1&lt;/font&gt;" style="text;html=1;align=center;verticalAlign=middle;resizable=0;points=[];autosize=1;strokeColor=none;fillColor=none;" vertex="1" parent="1">
          <mxGeometry x="50" y="75" width="70" height="30" as="geometry" />
        </mxCell>
        <mxCell id="NtdU-sKQ8i9bs_j4zmNI-364" value="&lt;font style=&quot;font-size: 10px;&quot;&gt;32\(\times\)1&lt;/font&gt;" style="text;html=1;align=center;verticalAlign=middle;resizable=0;points=[];autosize=1;strokeColor=none;fillColor=none;" vertex="1" parent="1">
          <mxGeometry x="250" y="119" width="80" height="30" as="geometry" />
        </mxCell>
      </root>
    </mxGraphModel>
  </diagram>
  <diagram name="step2" id="VtJJcWngv8iYAcRNEYgS">
    <mxGraphModel dx="1269" dy="1062" grid="1" gridSize="10" guides="1" tooltips="1" connect="1" arrows="1" fold="1" page="1" pageScale="1" pageWidth="850" pageHeight="1100" math="1" shadow="0">
      <root>
        <mxCell id="WqLTktB6bFphDeDwb8Mo-0" />
        <mxCell id="WqLTktB6bFphDeDwb8Mo-1" parent="WqLTktB6bFphDeDwb8Mo-0" />
        <mxCell id="WqLTktB6bFphDeDwb8Mo-4" value="Add (accumulate) dot product into output" style="text;html=1;align=center;verticalAlign=middle;resizable=0;points=[];autosize=1;strokeColor=none;fillColor=none;" vertex="1" parent="WqLTktB6bFphDeDwb8Mo-1">
          <mxGeometry x="135" y="305" width="240" height="30" as="geometry" />
        </mxCell>
        <mxCell id="WqLTktB6bFphDeDwb8Mo-149" value="" style="rounded=1;whiteSpace=wrap;html=1;strokeWidth=1;strokeColor=#d6b656;fillColor=#fff2cc;" vertex="1" parent="WqLTktB6bFphDeDwb8Mo-1">
          <mxGeometry x="50" y="225" width="415" height="80" as="geometry" />
        </mxCell>
        <mxCell id="WqLTktB6bFphDeDwb8Mo-150" value="&lt;span style=&quot;background-color: initial;&quot;&gt;\(\cdot\)&lt;/span&gt;" style="text;html=1;align=center;verticalAlign=middle;resizable=0;points=[];autosize=1;strokeColor=none;fillColor=none;" vertex="1" parent="WqLTktB6bFphDeDwb8Mo-1">
          <mxGeometry x="260" y="250" width="60" height="30" as="geometry" />
        </mxCell>
        <mxCell id="WqLTktB6bFphDeDwb8Mo-151" value="" style="rounded=0;whiteSpace=wrap;html=1;fillColor=#E6D0DE;" vertex="1" parent="WqLTktB6bFphDeDwb8Mo-1">
          <mxGeometry x="80" y="260" width="10" height="10" as="geometry" />
        </mxCell>
        <mxCell id="WqLTktB6bFphDeDwb8Mo-152" value="&lt;font face=&quot;Courier New&quot;&gt;+=&lt;/font&gt;" style="text;html=1;align=center;verticalAlign=middle;resizable=0;points=[];autosize=1;strokeColor=none;fillColor=none;" vertex="1" parent="WqLTktB6bFphDeDwb8Mo-1">
          <mxGeometry x="90" y="250" width="40" height="30" as="geometry" />
        </mxCell>
        <mxCell id="WqLTktB6bFphDeDwb8Mo-153" value="" style="rounded=0;whiteSpace=wrap;html=1;" vertex="1" parent="WqLTktB6bFphDeDwb8Mo-1">
          <mxGeometry x="130" y="245" width="10" height="10" as="geometry" />
        </mxCell>
        <mxCell id="WqLTktB6bFphDeDwb8Mo-154" value="" style="rounded=0;whiteSpace=wrap;html=1;" vertex="1" parent="WqLTktB6bFphDeDwb8Mo-1">
          <mxGeometry x="140" y="245" width="10" height="10" as="geometry" />
        </mxCell>
        <mxCell id="WqLTktB6bFphDeDwb8Mo-155" value="" style="rounded=0;whiteSpace=wrap;html=1;" vertex="1" parent="WqLTktB6bFphDeDwb8Mo-1">
          <mxGeometry x="150" y="245" width="10" height="10" as="geometry" />
        </mxCell>
        <mxCell id="WqLTktB6bFphDeDwb8Mo-156" value="" style="rounded=0;whiteSpace=wrap;html=1;" vertex="1" parent="WqLTktB6bFphDeDwb8Mo-1">
          <mxGeometry x="160" y="245" width="10" height="10" as="geometry" />
        </mxCell>
        <mxCell id="WqLTktB6bFphDeDwb8Mo-157" value="" style="rounded=0;whiteSpace=wrap;html=1;" vertex="1" parent="WqLTktB6bFphDeDwb8Mo-1">
          <mxGeometry x="170" y="245" width="10" height="10" as="geometry" />
        </mxCell>
        <mxCell id="WqLTktB6bFphDeDwb8Mo-158" value="" style="rounded=0;whiteSpace=wrap;html=1;" vertex="1" parent="WqLTktB6bFphDeDwb8Mo-1">
          <mxGeometry x="180" y="245" width="10" height="10" as="geometry" />
        </mxCell>
        <mxCell id="WqLTktB6bFphDeDwb8Mo-159" value="" style="rounded=0;whiteSpace=wrap;html=1;" vertex="1" parent="WqLTktB6bFphDeDwb8Mo-1">
          <mxGeometry x="190" y="245" width="10" height="10" as="geometry" />
        </mxCell>
        <mxCell id="WqLTktB6bFphDeDwb8Mo-160" value="" style="rounded=0;whiteSpace=wrap;html=1;" vertex="1" parent="WqLTktB6bFphDeDwb8Mo-1">
          <mxGeometry x="200" y="245" width="10" height="10" as="geometry" />
        </mxCell>
        <mxCell id="WqLTktB6bFphDeDwb8Mo-161" value="" style="rounded=0;whiteSpace=wrap;html=1;" vertex="1" parent="WqLTktB6bFphDeDwb8Mo-1">
          <mxGeometry x="210" y="245" width="10" height="10" as="geometry" />
        </mxCell>
        <mxCell id="WqLTktB6bFphDeDwb8Mo-162" value="" style="rounded=0;whiteSpace=wrap;html=1;" vertex="1" parent="WqLTktB6bFphDeDwb8Mo-1">
          <mxGeometry x="220" y="245" width="10" height="10" as="geometry" />
        </mxCell>
        <mxCell id="WqLTktB6bFphDeDwb8Mo-163" value="" style="rounded=0;whiteSpace=wrap;html=1;" vertex="1" parent="WqLTktB6bFphDeDwb8Mo-1">
          <mxGeometry x="230" y="245" width="10" height="10" as="geometry" />
        </mxCell>
        <mxCell id="WqLTktB6bFphDeDwb8Mo-164" value="" style="rounded=0;whiteSpace=wrap;html=1;" vertex="1" parent="WqLTktB6bFphDeDwb8Mo-1">
          <mxGeometry x="240" y="245" width="10" height="10" as="geometry" />
        </mxCell>
        <mxCell id="WqLTktB6bFphDeDwb8Mo-165" value="" style="rounded=0;whiteSpace=wrap;html=1;" vertex="1" parent="WqLTktB6bFphDeDwb8Mo-1">
          <mxGeometry x="250" y="245" width="10" height="10" as="geometry" />
        </mxCell>
        <mxCell id="WqLTktB6bFphDeDwb8Mo-166" value="" style="rounded=0;whiteSpace=wrap;html=1;" vertex="1" parent="WqLTktB6bFphDeDwb8Mo-1">
          <mxGeometry x="260" y="245" width="10" height="10" as="geometry" />
        </mxCell>
        <mxCell id="WqLTktB6bFphDeDwb8Mo-167" value="" style="rounded=0;whiteSpace=wrap;html=1;" vertex="1" parent="WqLTktB6bFphDeDwb8Mo-1">
          <mxGeometry x="270" y="245" width="10" height="10" as="geometry" />
        </mxCell>
        <mxCell id="WqLTktB6bFphDeDwb8Mo-168" value="" style="rounded=0;whiteSpace=wrap;html=1;" vertex="1" parent="WqLTktB6bFphDeDwb8Mo-1">
          <mxGeometry x="280" y="245" width="10" height="10" as="geometry" />
        </mxCell>
        <mxCell id="WqLTktB6bFphDeDwb8Mo-169" value="" style="rounded=0;whiteSpace=wrap;html=1;" vertex="1" parent="WqLTktB6bFphDeDwb8Mo-1">
          <mxGeometry x="290" y="245" width="10" height="10" as="geometry" />
        </mxCell>
        <mxCell id="WqLTktB6bFphDeDwb8Mo-170" value="" style="rounded=0;whiteSpace=wrap;html=1;" vertex="1" parent="WqLTktB6bFphDeDwb8Mo-1">
          <mxGeometry x="300" y="245" width="10" height="10" as="geometry" />
        </mxCell>
        <mxCell id="WqLTktB6bFphDeDwb8Mo-171" value="" style="rounded=0;whiteSpace=wrap;html=1;" vertex="1" parent="WqLTktB6bFphDeDwb8Mo-1">
          <mxGeometry x="310" y="245" width="10" height="10" as="geometry" />
        </mxCell>
        <mxCell id="WqLTktB6bFphDeDwb8Mo-172" value="" style="rounded=0;whiteSpace=wrap;html=1;" vertex="1" parent="WqLTktB6bFphDeDwb8Mo-1">
          <mxGeometry x="320" y="245" width="10" height="10" as="geometry" />
        </mxCell>
        <mxCell id="WqLTktB6bFphDeDwb8Mo-173" value="" style="rounded=0;whiteSpace=wrap;html=1;" vertex="1" parent="WqLTktB6bFphDeDwb8Mo-1">
          <mxGeometry x="330" y="245" width="10" height="10" as="geometry" />
        </mxCell>
        <mxCell id="WqLTktB6bFphDeDwb8Mo-174" value="" style="rounded=0;whiteSpace=wrap;html=1;" vertex="1" parent="WqLTktB6bFphDeDwb8Mo-1">
          <mxGeometry x="340" y="245" width="10" height="10" as="geometry" />
        </mxCell>
        <mxCell id="WqLTktB6bFphDeDwb8Mo-175" value="" style="rounded=0;whiteSpace=wrap;html=1;" vertex="1" parent="WqLTktB6bFphDeDwb8Mo-1">
          <mxGeometry x="350" y="245" width="10" height="10" as="geometry" />
        </mxCell>
        <mxCell id="WqLTktB6bFphDeDwb8Mo-176" value="" style="rounded=0;whiteSpace=wrap;html=1;" vertex="1" parent="WqLTktB6bFphDeDwb8Mo-1">
          <mxGeometry x="360" y="245" width="10" height="10" as="geometry" />
        </mxCell>
        <mxCell id="WqLTktB6bFphDeDwb8Mo-177" value="" style="rounded=0;whiteSpace=wrap;html=1;" vertex="1" parent="WqLTktB6bFphDeDwb8Mo-1">
          <mxGeometry x="370" y="245" width="10" height="10" as="geometry" />
        </mxCell>
        <mxCell id="WqLTktB6bFphDeDwb8Mo-178" value="" style="rounded=0;whiteSpace=wrap;html=1;" vertex="1" parent="WqLTktB6bFphDeDwb8Mo-1">
          <mxGeometry x="380" y="245" width="10" height="10" as="geometry" />
        </mxCell>
        <mxCell id="WqLTktB6bFphDeDwb8Mo-179" value="" style="rounded=0;whiteSpace=wrap;html=1;" vertex="1" parent="WqLTktB6bFphDeDwb8Mo-1">
          <mxGeometry x="390" y="245" width="10" height="10" as="geometry" />
        </mxCell>
        <mxCell id="WqLTktB6bFphDeDwb8Mo-180" value="" style="rounded=0;whiteSpace=wrap;html=1;" vertex="1" parent="WqLTktB6bFphDeDwb8Mo-1">
          <mxGeometry x="400" y="245" width="10" height="10" as="geometry" />
        </mxCell>
        <mxCell id="WqLTktB6bFphDeDwb8Mo-181" value="" style="rounded=0;whiteSpace=wrap;html=1;" vertex="1" parent="WqLTktB6bFphDeDwb8Mo-1">
          <mxGeometry x="410" y="245" width="10" height="10" as="geometry" />
        </mxCell>
        <mxCell id="WqLTktB6bFphDeDwb8Mo-182" value="" style="rounded=0;whiteSpace=wrap;html=1;" vertex="1" parent="WqLTktB6bFphDeDwb8Mo-1">
          <mxGeometry x="420" y="245" width="10" height="10" as="geometry" />
        </mxCell>
        <mxCell id="WqLTktB6bFphDeDwb8Mo-183" value="" style="rounded=0;whiteSpace=wrap;html=1;" vertex="1" parent="WqLTktB6bFphDeDwb8Mo-1">
          <mxGeometry x="430" y="245" width="10" height="10" as="geometry" />
        </mxCell>
        <mxCell id="WqLTktB6bFphDeDwb8Mo-184" value="" style="rounded=0;whiteSpace=wrap;html=1;" vertex="1" parent="WqLTktB6bFphDeDwb8Mo-1">
          <mxGeometry x="440" y="245" width="10" height="10" as="geometry" />
        </mxCell>
        <mxCell id="WqLTktB6bFphDeDwb8Mo-185" value="" style="rounded=0;whiteSpace=wrap;html=1;" vertex="1" parent="WqLTktB6bFphDeDwb8Mo-1">
          <mxGeometry x="130" y="275" width="10" height="10" as="geometry" />
        </mxCell>
        <mxCell id="WqLTktB6bFphDeDwb8Mo-186" value="" style="rounded=0;whiteSpace=wrap;html=1;" vertex="1" parent="WqLTktB6bFphDeDwb8Mo-1">
          <mxGeometry x="140" y="275" width="10" height="10" as="geometry" />
        </mxCell>
        <mxCell id="WqLTktB6bFphDeDwb8Mo-187" value="" style="rounded=0;whiteSpace=wrap;html=1;" vertex="1" parent="WqLTktB6bFphDeDwb8Mo-1">
          <mxGeometry x="150" y="275" width="10" height="10" as="geometry" />
        </mxCell>
        <mxCell id="WqLTktB6bFphDeDwb8Mo-188" value="" style="rounded=0;whiteSpace=wrap;html=1;" vertex="1" parent="WqLTktB6bFphDeDwb8Mo-1">
          <mxGeometry x="160" y="275" width="10" height="10" as="geometry" />
        </mxCell>
        <mxCell id="WqLTktB6bFphDeDwb8Mo-189" value="" style="rounded=0;whiteSpace=wrap;html=1;" vertex="1" parent="WqLTktB6bFphDeDwb8Mo-1">
          <mxGeometry x="170" y="275" width="10" height="10" as="geometry" />
        </mxCell>
        <mxCell id="WqLTktB6bFphDeDwb8Mo-190" value="" style="rounded=0;whiteSpace=wrap;html=1;" vertex="1" parent="WqLTktB6bFphDeDwb8Mo-1">
          <mxGeometry x="180" y="275" width="10" height="10" as="geometry" />
        </mxCell>
        <mxCell id="WqLTktB6bFphDeDwb8Mo-191" value="" style="rounded=0;whiteSpace=wrap;html=1;" vertex="1" parent="WqLTktB6bFphDeDwb8Mo-1">
          <mxGeometry x="190" y="275" width="10" height="10" as="geometry" />
        </mxCell>
        <mxCell id="WqLTktB6bFphDeDwb8Mo-192" value="" style="rounded=0;whiteSpace=wrap;html=1;" vertex="1" parent="WqLTktB6bFphDeDwb8Mo-1">
          <mxGeometry x="200" y="275" width="10" height="10" as="geometry" />
        </mxCell>
        <mxCell id="WqLTktB6bFphDeDwb8Mo-193" value="" style="rounded=0;whiteSpace=wrap;html=1;" vertex="1" parent="WqLTktB6bFphDeDwb8Mo-1">
          <mxGeometry x="210" y="275" width="10" height="10" as="geometry" />
        </mxCell>
        <mxCell id="WqLTktB6bFphDeDwb8Mo-194" value="" style="rounded=0;whiteSpace=wrap;html=1;" vertex="1" parent="WqLTktB6bFphDeDwb8Mo-1">
          <mxGeometry x="220" y="275" width="10" height="10" as="geometry" />
        </mxCell>
        <mxCell id="WqLTktB6bFphDeDwb8Mo-195" value="" style="rounded=0;whiteSpace=wrap;html=1;" vertex="1" parent="WqLTktB6bFphDeDwb8Mo-1">
          <mxGeometry x="230" y="275" width="10" height="10" as="geometry" />
        </mxCell>
        <mxCell id="WqLTktB6bFphDeDwb8Mo-196" value="" style="rounded=0;whiteSpace=wrap;html=1;" vertex="1" parent="WqLTktB6bFphDeDwb8Mo-1">
          <mxGeometry x="240" y="275" width="10" height="10" as="geometry" />
        </mxCell>
        <mxCell id="WqLTktB6bFphDeDwb8Mo-197" value="" style="rounded=0;whiteSpace=wrap;html=1;" vertex="1" parent="WqLTktB6bFphDeDwb8Mo-1">
          <mxGeometry x="250" y="275" width="10" height="10" as="geometry" />
        </mxCell>
        <mxCell id="WqLTktB6bFphDeDwb8Mo-198" value="" style="rounded=0;whiteSpace=wrap;html=1;" vertex="1" parent="WqLTktB6bFphDeDwb8Mo-1">
          <mxGeometry x="260" y="275" width="10" height="10" as="geometry" />
        </mxCell>
        <mxCell id="WqLTktB6bFphDeDwb8Mo-199" value="" style="rounded=0;whiteSpace=wrap;html=1;" vertex="1" parent="WqLTktB6bFphDeDwb8Mo-1">
          <mxGeometry x="270" y="275" width="10" height="10" as="geometry" />
        </mxCell>
        <mxCell id="WqLTktB6bFphDeDwb8Mo-200" value="" style="rounded=0;whiteSpace=wrap;html=1;" vertex="1" parent="WqLTktB6bFphDeDwb8Mo-1">
          <mxGeometry x="280" y="275" width="10" height="10" as="geometry" />
        </mxCell>
        <mxCell id="WqLTktB6bFphDeDwb8Mo-201" value="" style="rounded=0;whiteSpace=wrap;html=1;" vertex="1" parent="WqLTktB6bFphDeDwb8Mo-1">
          <mxGeometry x="290" y="275" width="10" height="10" as="geometry" />
        </mxCell>
        <mxCell id="WqLTktB6bFphDeDwb8Mo-202" value="" style="rounded=0;whiteSpace=wrap;html=1;" vertex="1" parent="WqLTktB6bFphDeDwb8Mo-1">
          <mxGeometry x="300" y="275" width="10" height="10" as="geometry" />
        </mxCell>
        <mxCell id="WqLTktB6bFphDeDwb8Mo-203" value="" style="rounded=0;whiteSpace=wrap;html=1;" vertex="1" parent="WqLTktB6bFphDeDwb8Mo-1">
          <mxGeometry x="310" y="275" width="10" height="10" as="geometry" />
        </mxCell>
        <mxCell id="WqLTktB6bFphDeDwb8Mo-204" value="" style="rounded=0;whiteSpace=wrap;html=1;" vertex="1" parent="WqLTktB6bFphDeDwb8Mo-1">
          <mxGeometry x="320" y="275" width="10" height="10" as="geometry" />
        </mxCell>
        <mxCell id="WqLTktB6bFphDeDwb8Mo-205" value="" style="rounded=0;whiteSpace=wrap;html=1;" vertex="1" parent="WqLTktB6bFphDeDwb8Mo-1">
          <mxGeometry x="330" y="275" width="10" height="10" as="geometry" />
        </mxCell>
        <mxCell id="WqLTktB6bFphDeDwb8Mo-206" value="" style="rounded=0;whiteSpace=wrap;html=1;" vertex="1" parent="WqLTktB6bFphDeDwb8Mo-1">
          <mxGeometry x="340" y="275" width="10" height="10" as="geometry" />
        </mxCell>
        <mxCell id="WqLTktB6bFphDeDwb8Mo-207" value="" style="rounded=0;whiteSpace=wrap;html=1;" vertex="1" parent="WqLTktB6bFphDeDwb8Mo-1">
          <mxGeometry x="350" y="275" width="10" height="10" as="geometry" />
        </mxCell>
        <mxCell id="WqLTktB6bFphDeDwb8Mo-208" value="" style="rounded=0;whiteSpace=wrap;html=1;" vertex="1" parent="WqLTktB6bFphDeDwb8Mo-1">
          <mxGeometry x="360" y="275" width="10" height="10" as="geometry" />
        </mxCell>
        <mxCell id="WqLTktB6bFphDeDwb8Mo-209" value="" style="rounded=0;whiteSpace=wrap;html=1;" vertex="1" parent="WqLTktB6bFphDeDwb8Mo-1">
          <mxGeometry x="370" y="275" width="10" height="10" as="geometry" />
        </mxCell>
        <mxCell id="WqLTktB6bFphDeDwb8Mo-210" value="" style="rounded=0;whiteSpace=wrap;html=1;" vertex="1" parent="WqLTktB6bFphDeDwb8Mo-1">
          <mxGeometry x="380" y="275" width="10" height="10" as="geometry" />
        </mxCell>
        <mxCell id="WqLTktB6bFphDeDwb8Mo-211" value="" style="rounded=0;whiteSpace=wrap;html=1;" vertex="1" parent="WqLTktB6bFphDeDwb8Mo-1">
          <mxGeometry x="390" y="275" width="10" height="10" as="geometry" />
        </mxCell>
        <mxCell id="WqLTktB6bFphDeDwb8Mo-212" value="" style="rounded=0;whiteSpace=wrap;html=1;" vertex="1" parent="WqLTktB6bFphDeDwb8Mo-1">
          <mxGeometry x="400" y="275" width="10" height="10" as="geometry" />
        </mxCell>
        <mxCell id="WqLTktB6bFphDeDwb8Mo-213" value="" style="rounded=0;whiteSpace=wrap;html=1;" vertex="1" parent="WqLTktB6bFphDeDwb8Mo-1">
          <mxGeometry x="410" y="275" width="10" height="10" as="geometry" />
        </mxCell>
        <mxCell id="WqLTktB6bFphDeDwb8Mo-214" value="" style="rounded=0;whiteSpace=wrap;html=1;" vertex="1" parent="WqLTktB6bFphDeDwb8Mo-1">
          <mxGeometry x="420" y="275" width="10" height="10" as="geometry" />
        </mxCell>
        <mxCell id="WqLTktB6bFphDeDwb8Mo-215" value="" style="rounded=0;whiteSpace=wrap;html=1;" vertex="1" parent="WqLTktB6bFphDeDwb8Mo-1">
          <mxGeometry x="430" y="275" width="10" height="10" as="geometry" />
        </mxCell>
        <mxCell id="WqLTktB6bFphDeDwb8Mo-216" value="" style="rounded=0;whiteSpace=wrap;html=1;" vertex="1" parent="WqLTktB6bFphDeDwb8Mo-1">
          <mxGeometry x="440" y="275" width="10" height="10" as="geometry" />
        </mxCell>
        <mxCell id="WqLTktB6bFphDeDwb8Mo-217" value="&lt;font style=&quot;font-size: 10px;&quot;&gt;1\(\times\)32&lt;/font&gt;" style="text;html=1;align=center;verticalAlign=middle;resizable=0;points=[];autosize=1;strokeColor=none;fillColor=none;" vertex="1" parent="WqLTktB6bFphDeDwb8Mo-1">
          <mxGeometry x="250" y="220" width="80" height="30" as="geometry" />
        </mxCell>
        <mxCell id="WqLTktB6bFphDeDwb8Mo-218" value="&lt;font style=&quot;font-size: 10px;&quot;&gt;1\(\times\)1&lt;/font&gt;" style="text;html=1;align=center;verticalAlign=middle;resizable=0;points=[];autosize=1;strokeColor=none;fillColor=none;" vertex="1" parent="WqLTktB6bFphDeDwb8Mo-1">
          <mxGeometry x="50" y="235" width="70" height="30" as="geometry" />
        </mxCell>
        <mxCell id="WqLTktB6bFphDeDwb8Mo-219" value="&lt;font style=&quot;font-size: 10px;&quot;&gt;32\(\times\)1&lt;/font&gt;" style="text;html=1;align=center;verticalAlign=middle;resizable=0;points=[];autosize=1;strokeColor=none;fillColor=none;" vertex="1" parent="WqLTktB6bFphDeDwb8Mo-1">
          <mxGeometry x="250" y="279" width="80" height="30" as="geometry" />
        </mxCell>
        <mxCell id="WqLTktB6bFphDeDwb8Mo-220" value="" style="rounded=0;whiteSpace=wrap;html=1;fillColor=#E1D5E7;" vertex="1" parent="WqLTktB6bFphDeDwb8Mo-1">
          <mxGeometry x="80" y="210" width="10" height="10" as="geometry" />
        </mxCell>
        <mxCell id="WqLTktB6bFphDeDwb8Mo-221" value="&lt;font face=&quot;Courier New&quot;&gt;=&lt;/font&gt;" style="text;html=1;align=center;verticalAlign=middle;resizable=0;points=[];autosize=1;strokeColor=none;fillColor=none;" vertex="1" parent="WqLTktB6bFphDeDwb8Mo-1">
          <mxGeometry x="95" y="200" width="30" height="30" as="geometry" />
        </mxCell>
        <mxCell id="WqLTktB6bFphDeDwb8Mo-222" value="&lt;font style=&quot;font-size: 10px;&quot;&gt;1\(\times\)1&lt;/font&gt;" style="text;html=1;align=center;verticalAlign=middle;resizable=0;points=[];autosize=1;strokeColor=none;fillColor=none;" vertex="1" parent="WqLTktB6bFphDeDwb8Mo-1">
          <mxGeometry x="50" y="185" width="70" height="30" as="geometry" />
        </mxCell>
        <mxCell id="WqLTktB6bFphDeDwb8Mo-223" value="&lt;font face=&quot;Courier New&quot;&gt;&lt;b&gt;0&lt;/b&gt;&lt;/font&gt;" style="text;html=1;align=center;verticalAlign=middle;resizable=0;points=[];autosize=1;strokeColor=none;fillColor=none;" vertex="1" parent="WqLTktB6bFphDeDwb8Mo-1">
          <mxGeometry x="114" y="200" width="30" height="30" as="geometry" />
        </mxCell>
      </root>
    </mxGraphModel>
  </diagram>
  <diagram name="step3" id="nQJ3HFpMRMqu_zQ_mYiN">
    <mxGraphModel dx="1269" dy="1062" grid="1" gridSize="10" guides="1" tooltips="1" connect="1" arrows="1" fold="1" page="1" pageScale="1" pageWidth="850" pageHeight="1100" math="1" shadow="0">
      <root>
        <mxCell id="7iN0deQ_qTOm1xtRBUHf-0" />
        <mxCell id="7iN0deQ_qTOm1xtRBUHf-1" parent="7iN0deQ_qTOm1xtRBUHf-0" />
        <mxCell id="7iN0deQ_qTOm1xtRBUHf-2" value="" style="rounded=1;whiteSpace=wrap;html=1;strokeWidth=1;fillColor=none;dashed=1;" vertex="1" parent="7iN0deQ_qTOm1xtRBUHf-1">
          <mxGeometry x="50" y="385" width="415" height="80" as="geometry" />
        </mxCell>
        <mxCell id="7iN0deQ_qTOm1xtRBUHf-5" value="Add (accumulate)&lt;div&gt;multiplication output&lt;/div&gt;" style="text;html=1;align=center;verticalAlign=middle;resizable=0;points=[];autosize=1;strokeColor=none;fillColor=none;" vertex="1" parent="7iN0deQ_qTOm1xtRBUHf-1">
          <mxGeometry x="44" y="465" width="130" height="40" as="geometry" />
        </mxCell>
        <mxCell id="7iN0deQ_qTOm1xtRBUHf-7" value="" style="rounded=1;whiteSpace=wrap;html=1;strokeWidth=1;strokeColor=#d6b656;fillColor=#fff2cc;" vertex="1" parent="7iN0deQ_qTOm1xtRBUHf-1">
          <mxGeometry x="70" y="385" width="78" height="80" as="geometry" />
        </mxCell>
        <mxCell id="7iN0deQ_qTOm1xtRBUHf-8" value="&lt;span style=&quot;background-color: initial;&quot;&gt;*&lt;/span&gt;" style="text;html=1;align=center;verticalAlign=middle;resizable=0;points=[];autosize=1;strokeColor=none;fillColor=none;fontFamily=Courier New;" vertex="1" parent="7iN0deQ_qTOm1xtRBUHf-1">
          <mxGeometry x="120" y="412" width="30" height="30" as="geometry" />
        </mxCell>
        <mxCell id="7iN0deQ_qTOm1xtRBUHf-9" value="" style="rounded=0;whiteSpace=wrap;html=1;fillColor=#E6D0DE;" vertex="1" parent="7iN0deQ_qTOm1xtRBUHf-1">
          <mxGeometry x="80" y="420" width="10" height="10" as="geometry" />
        </mxCell>
        <mxCell id="7iN0deQ_qTOm1xtRBUHf-10" value="&lt;font face=&quot;Courier New&quot;&gt;+=&lt;/font&gt;" style="text;html=1;align=center;verticalAlign=middle;resizable=0;points=[];autosize=1;strokeColor=none;fillColor=none;" vertex="1" parent="7iN0deQ_qTOm1xtRBUHf-1">
          <mxGeometry x="90" y="410" width="40" height="30" as="geometry" />
        </mxCell>
        <mxCell id="7iN0deQ_qTOm1xtRBUHf-11" value="" style="rounded=0;whiteSpace=wrap;html=1;" vertex="1" parent="7iN0deQ_qTOm1xtRBUHf-1">
          <mxGeometry x="130" y="405" width="10" height="10" as="geometry" />
        </mxCell>
        <mxCell id="7iN0deQ_qTOm1xtRBUHf-12" value="" style="rounded=0;whiteSpace=wrap;html=1;" vertex="1" parent="7iN0deQ_qTOm1xtRBUHf-1">
          <mxGeometry x="140" y="405" width="10" height="10" as="geometry" />
        </mxCell>
        <mxCell id="7iN0deQ_qTOm1xtRBUHf-13" value="" style="rounded=0;whiteSpace=wrap;html=1;" vertex="1" parent="7iN0deQ_qTOm1xtRBUHf-1">
          <mxGeometry x="150" y="405" width="10" height="10" as="geometry" />
        </mxCell>
        <mxCell id="7iN0deQ_qTOm1xtRBUHf-14" value="" style="rounded=0;whiteSpace=wrap;html=1;" vertex="1" parent="7iN0deQ_qTOm1xtRBUHf-1">
          <mxGeometry x="160" y="405" width="10" height="10" as="geometry" />
        </mxCell>
        <mxCell id="7iN0deQ_qTOm1xtRBUHf-15" value="" style="rounded=0;whiteSpace=wrap;html=1;" vertex="1" parent="7iN0deQ_qTOm1xtRBUHf-1">
          <mxGeometry x="170" y="405" width="10" height="10" as="geometry" />
        </mxCell>
        <mxCell id="7iN0deQ_qTOm1xtRBUHf-16" value="" style="rounded=0;whiteSpace=wrap;html=1;" vertex="1" parent="7iN0deQ_qTOm1xtRBUHf-1">
          <mxGeometry x="180" y="405" width="10" height="10" as="geometry" />
        </mxCell>
        <mxCell id="7iN0deQ_qTOm1xtRBUHf-17" value="" style="rounded=0;whiteSpace=wrap;html=1;" vertex="1" parent="7iN0deQ_qTOm1xtRBUHf-1">
          <mxGeometry x="190" y="405" width="10" height="10" as="geometry" />
        </mxCell>
        <mxCell id="7iN0deQ_qTOm1xtRBUHf-18" value="" style="rounded=0;whiteSpace=wrap;html=1;" vertex="1" parent="7iN0deQ_qTOm1xtRBUHf-1">
          <mxGeometry x="200" y="405" width="10" height="10" as="geometry" />
        </mxCell>
        <mxCell id="7iN0deQ_qTOm1xtRBUHf-19" value="" style="rounded=0;whiteSpace=wrap;html=1;" vertex="1" parent="7iN0deQ_qTOm1xtRBUHf-1">
          <mxGeometry x="210" y="405" width="10" height="10" as="geometry" />
        </mxCell>
        <mxCell id="7iN0deQ_qTOm1xtRBUHf-20" value="" style="rounded=0;whiteSpace=wrap;html=1;" vertex="1" parent="7iN0deQ_qTOm1xtRBUHf-1">
          <mxGeometry x="220" y="405" width="10" height="10" as="geometry" />
        </mxCell>
        <mxCell id="7iN0deQ_qTOm1xtRBUHf-21" value="" style="rounded=0;whiteSpace=wrap;html=1;" vertex="1" parent="7iN0deQ_qTOm1xtRBUHf-1">
          <mxGeometry x="230" y="405" width="10" height="10" as="geometry" />
        </mxCell>
        <mxCell id="7iN0deQ_qTOm1xtRBUHf-22" value="" style="rounded=0;whiteSpace=wrap;html=1;" vertex="1" parent="7iN0deQ_qTOm1xtRBUHf-1">
          <mxGeometry x="240" y="405" width="10" height="10" as="geometry" />
        </mxCell>
        <mxCell id="7iN0deQ_qTOm1xtRBUHf-23" value="" style="rounded=0;whiteSpace=wrap;html=1;" vertex="1" parent="7iN0deQ_qTOm1xtRBUHf-1">
          <mxGeometry x="250" y="405" width="10" height="10" as="geometry" />
        </mxCell>
        <mxCell id="7iN0deQ_qTOm1xtRBUHf-24" value="" style="rounded=0;whiteSpace=wrap;html=1;" vertex="1" parent="7iN0deQ_qTOm1xtRBUHf-1">
          <mxGeometry x="260" y="405" width="10" height="10" as="geometry" />
        </mxCell>
        <mxCell id="7iN0deQ_qTOm1xtRBUHf-25" value="" style="rounded=0;whiteSpace=wrap;html=1;" vertex="1" parent="7iN0deQ_qTOm1xtRBUHf-1">
          <mxGeometry x="270" y="405" width="10" height="10" as="geometry" />
        </mxCell>
        <mxCell id="7iN0deQ_qTOm1xtRBUHf-26" value="" style="rounded=0;whiteSpace=wrap;html=1;" vertex="1" parent="7iN0deQ_qTOm1xtRBUHf-1">
          <mxGeometry x="280" y="405" width="10" height="10" as="geometry" />
        </mxCell>
        <mxCell id="7iN0deQ_qTOm1xtRBUHf-27" value="" style="rounded=0;whiteSpace=wrap;html=1;" vertex="1" parent="7iN0deQ_qTOm1xtRBUHf-1">
          <mxGeometry x="290" y="405" width="10" height="10" as="geometry" />
        </mxCell>
        <mxCell id="7iN0deQ_qTOm1xtRBUHf-28" value="" style="rounded=0;whiteSpace=wrap;html=1;" vertex="1" parent="7iN0deQ_qTOm1xtRBUHf-1">
          <mxGeometry x="300" y="405" width="10" height="10" as="geometry" />
        </mxCell>
        <mxCell id="7iN0deQ_qTOm1xtRBUHf-29" value="" style="rounded=0;whiteSpace=wrap;html=1;" vertex="1" parent="7iN0deQ_qTOm1xtRBUHf-1">
          <mxGeometry x="310" y="405" width="10" height="10" as="geometry" />
        </mxCell>
        <mxCell id="7iN0deQ_qTOm1xtRBUHf-30" value="" style="rounded=0;whiteSpace=wrap;html=1;" vertex="1" parent="7iN0deQ_qTOm1xtRBUHf-1">
          <mxGeometry x="320" y="405" width="10" height="10" as="geometry" />
        </mxCell>
        <mxCell id="7iN0deQ_qTOm1xtRBUHf-31" value="" style="rounded=0;whiteSpace=wrap;html=1;" vertex="1" parent="7iN0deQ_qTOm1xtRBUHf-1">
          <mxGeometry x="330" y="405" width="10" height="10" as="geometry" />
        </mxCell>
        <mxCell id="7iN0deQ_qTOm1xtRBUHf-32" value="" style="rounded=0;whiteSpace=wrap;html=1;" vertex="1" parent="7iN0deQ_qTOm1xtRBUHf-1">
          <mxGeometry x="340" y="405" width="10" height="10" as="geometry" />
        </mxCell>
        <mxCell id="7iN0deQ_qTOm1xtRBUHf-33" value="" style="rounded=0;whiteSpace=wrap;html=1;" vertex="1" parent="7iN0deQ_qTOm1xtRBUHf-1">
          <mxGeometry x="350" y="405" width="10" height="10" as="geometry" />
        </mxCell>
        <mxCell id="7iN0deQ_qTOm1xtRBUHf-34" value="" style="rounded=0;whiteSpace=wrap;html=1;" vertex="1" parent="7iN0deQ_qTOm1xtRBUHf-1">
          <mxGeometry x="360" y="405" width="10" height="10" as="geometry" />
        </mxCell>
        <mxCell id="7iN0deQ_qTOm1xtRBUHf-35" value="" style="rounded=0;whiteSpace=wrap;html=1;" vertex="1" parent="7iN0deQ_qTOm1xtRBUHf-1">
          <mxGeometry x="370" y="405" width="10" height="10" as="geometry" />
        </mxCell>
        <mxCell id="7iN0deQ_qTOm1xtRBUHf-36" value="" style="rounded=0;whiteSpace=wrap;html=1;" vertex="1" parent="7iN0deQ_qTOm1xtRBUHf-1">
          <mxGeometry x="380" y="405" width="10" height="10" as="geometry" />
        </mxCell>
        <mxCell id="7iN0deQ_qTOm1xtRBUHf-37" value="" style="rounded=0;whiteSpace=wrap;html=1;" vertex="1" parent="7iN0deQ_qTOm1xtRBUHf-1">
          <mxGeometry x="390" y="405" width="10" height="10" as="geometry" />
        </mxCell>
        <mxCell id="7iN0deQ_qTOm1xtRBUHf-38" value="" style="rounded=0;whiteSpace=wrap;html=1;" vertex="1" parent="7iN0deQ_qTOm1xtRBUHf-1">
          <mxGeometry x="400" y="405" width="10" height="10" as="geometry" />
        </mxCell>
        <mxCell id="7iN0deQ_qTOm1xtRBUHf-39" value="" style="rounded=0;whiteSpace=wrap;html=1;" vertex="1" parent="7iN0deQ_qTOm1xtRBUHf-1">
          <mxGeometry x="410" y="405" width="10" height="10" as="geometry" />
        </mxCell>
        <mxCell id="7iN0deQ_qTOm1xtRBUHf-40" value="" style="rounded=0;whiteSpace=wrap;html=1;" vertex="1" parent="7iN0deQ_qTOm1xtRBUHf-1">
          <mxGeometry x="420" y="405" width="10" height="10" as="geometry" />
        </mxCell>
        <mxCell id="7iN0deQ_qTOm1xtRBUHf-41" value="" style="rounded=0;whiteSpace=wrap;html=1;" vertex="1" parent="7iN0deQ_qTOm1xtRBUHf-1">
          <mxGeometry x="430" y="405" width="10" height="10" as="geometry" />
        </mxCell>
        <mxCell id="7iN0deQ_qTOm1xtRBUHf-42" value="" style="rounded=0;whiteSpace=wrap;html=1;" vertex="1" parent="7iN0deQ_qTOm1xtRBUHf-1">
          <mxGeometry x="440" y="405" width="10" height="10" as="geometry" />
        </mxCell>
        <mxCell id="7iN0deQ_qTOm1xtRBUHf-43" value="" style="rounded=0;whiteSpace=wrap;html=1;" vertex="1" parent="7iN0deQ_qTOm1xtRBUHf-1">
          <mxGeometry x="130" y="435" width="10" height="10" as="geometry" />
        </mxCell>
        <mxCell id="7iN0deQ_qTOm1xtRBUHf-44" value="" style="rounded=0;whiteSpace=wrap;html=1;" vertex="1" parent="7iN0deQ_qTOm1xtRBUHf-1">
          <mxGeometry x="140" y="435" width="10" height="10" as="geometry" />
        </mxCell>
        <mxCell id="7iN0deQ_qTOm1xtRBUHf-45" value="" style="rounded=0;whiteSpace=wrap;html=1;" vertex="1" parent="7iN0deQ_qTOm1xtRBUHf-1">
          <mxGeometry x="150" y="435" width="10" height="10" as="geometry" />
        </mxCell>
        <mxCell id="7iN0deQ_qTOm1xtRBUHf-46" value="" style="rounded=0;whiteSpace=wrap;html=1;" vertex="1" parent="7iN0deQ_qTOm1xtRBUHf-1">
          <mxGeometry x="160" y="435" width="10" height="10" as="geometry" />
        </mxCell>
        <mxCell id="7iN0deQ_qTOm1xtRBUHf-47" value="" style="rounded=0;whiteSpace=wrap;html=1;" vertex="1" parent="7iN0deQ_qTOm1xtRBUHf-1">
          <mxGeometry x="170" y="435" width="10" height="10" as="geometry" />
        </mxCell>
        <mxCell id="7iN0deQ_qTOm1xtRBUHf-48" value="" style="rounded=0;whiteSpace=wrap;html=1;" vertex="1" parent="7iN0deQ_qTOm1xtRBUHf-1">
          <mxGeometry x="180" y="435" width="10" height="10" as="geometry" />
        </mxCell>
        <mxCell id="7iN0deQ_qTOm1xtRBUHf-49" value="" style="rounded=0;whiteSpace=wrap;html=1;" vertex="1" parent="7iN0deQ_qTOm1xtRBUHf-1">
          <mxGeometry x="190" y="435" width="10" height="10" as="geometry" />
        </mxCell>
        <mxCell id="7iN0deQ_qTOm1xtRBUHf-50" value="" style="rounded=0;whiteSpace=wrap;html=1;" vertex="1" parent="7iN0deQ_qTOm1xtRBUHf-1">
          <mxGeometry x="200" y="435" width="10" height="10" as="geometry" />
        </mxCell>
        <mxCell id="7iN0deQ_qTOm1xtRBUHf-51" value="" style="rounded=0;whiteSpace=wrap;html=1;" vertex="1" parent="7iN0deQ_qTOm1xtRBUHf-1">
          <mxGeometry x="210" y="435" width="10" height="10" as="geometry" />
        </mxCell>
        <mxCell id="7iN0deQ_qTOm1xtRBUHf-52" value="" style="rounded=0;whiteSpace=wrap;html=1;" vertex="1" parent="7iN0deQ_qTOm1xtRBUHf-1">
          <mxGeometry x="220" y="435" width="10" height="10" as="geometry" />
        </mxCell>
        <mxCell id="7iN0deQ_qTOm1xtRBUHf-53" value="" style="rounded=0;whiteSpace=wrap;html=1;" vertex="1" parent="7iN0deQ_qTOm1xtRBUHf-1">
          <mxGeometry x="230" y="435" width="10" height="10" as="geometry" />
        </mxCell>
        <mxCell id="7iN0deQ_qTOm1xtRBUHf-54" value="" style="rounded=0;whiteSpace=wrap;html=1;" vertex="1" parent="7iN0deQ_qTOm1xtRBUHf-1">
          <mxGeometry x="240" y="435" width="10" height="10" as="geometry" />
        </mxCell>
        <mxCell id="7iN0deQ_qTOm1xtRBUHf-55" value="" style="rounded=0;whiteSpace=wrap;html=1;" vertex="1" parent="7iN0deQ_qTOm1xtRBUHf-1">
          <mxGeometry x="250" y="435" width="10" height="10" as="geometry" />
        </mxCell>
        <mxCell id="7iN0deQ_qTOm1xtRBUHf-56" value="" style="rounded=0;whiteSpace=wrap;html=1;" vertex="1" parent="7iN0deQ_qTOm1xtRBUHf-1">
          <mxGeometry x="260" y="435" width="10" height="10" as="geometry" />
        </mxCell>
        <mxCell id="7iN0deQ_qTOm1xtRBUHf-57" value="" style="rounded=0;whiteSpace=wrap;html=1;" vertex="1" parent="7iN0deQ_qTOm1xtRBUHf-1">
          <mxGeometry x="270" y="435" width="10" height="10" as="geometry" />
        </mxCell>
        <mxCell id="7iN0deQ_qTOm1xtRBUHf-58" value="" style="rounded=0;whiteSpace=wrap;html=1;" vertex="1" parent="7iN0deQ_qTOm1xtRBUHf-1">
          <mxGeometry x="280" y="435" width="10" height="10" as="geometry" />
        </mxCell>
        <mxCell id="7iN0deQ_qTOm1xtRBUHf-59" value="" style="rounded=0;whiteSpace=wrap;html=1;" vertex="1" parent="7iN0deQ_qTOm1xtRBUHf-1">
          <mxGeometry x="290" y="435" width="10" height="10" as="geometry" />
        </mxCell>
        <mxCell id="7iN0deQ_qTOm1xtRBUHf-60" value="" style="rounded=0;whiteSpace=wrap;html=1;" vertex="1" parent="7iN0deQ_qTOm1xtRBUHf-1">
          <mxGeometry x="300" y="435" width="10" height="10" as="geometry" />
        </mxCell>
        <mxCell id="7iN0deQ_qTOm1xtRBUHf-61" value="" style="rounded=0;whiteSpace=wrap;html=1;" vertex="1" parent="7iN0deQ_qTOm1xtRBUHf-1">
          <mxGeometry x="310" y="435" width="10" height="10" as="geometry" />
        </mxCell>
        <mxCell id="7iN0deQ_qTOm1xtRBUHf-62" value="" style="rounded=0;whiteSpace=wrap;html=1;" vertex="1" parent="7iN0deQ_qTOm1xtRBUHf-1">
          <mxGeometry x="320" y="435" width="10" height="10" as="geometry" />
        </mxCell>
        <mxCell id="7iN0deQ_qTOm1xtRBUHf-63" value="" style="rounded=0;whiteSpace=wrap;html=1;" vertex="1" parent="7iN0deQ_qTOm1xtRBUHf-1">
          <mxGeometry x="330" y="435" width="10" height="10" as="geometry" />
        </mxCell>
        <mxCell id="7iN0deQ_qTOm1xtRBUHf-64" value="" style="rounded=0;whiteSpace=wrap;html=1;" vertex="1" parent="7iN0deQ_qTOm1xtRBUHf-1">
          <mxGeometry x="340" y="435" width="10" height="10" as="geometry" />
        </mxCell>
        <mxCell id="7iN0deQ_qTOm1xtRBUHf-65" value="" style="rounded=0;whiteSpace=wrap;html=1;" vertex="1" parent="7iN0deQ_qTOm1xtRBUHf-1">
          <mxGeometry x="350" y="435" width="10" height="10" as="geometry" />
        </mxCell>
        <mxCell id="7iN0deQ_qTOm1xtRBUHf-66" value="" style="rounded=0;whiteSpace=wrap;html=1;" vertex="1" parent="7iN0deQ_qTOm1xtRBUHf-1">
          <mxGeometry x="360" y="435" width="10" height="10" as="geometry" />
        </mxCell>
        <mxCell id="7iN0deQ_qTOm1xtRBUHf-67" value="" style="rounded=0;whiteSpace=wrap;html=1;" vertex="1" parent="7iN0deQ_qTOm1xtRBUHf-1">
          <mxGeometry x="370" y="435" width="10" height="10" as="geometry" />
        </mxCell>
        <mxCell id="7iN0deQ_qTOm1xtRBUHf-68" value="" style="rounded=0;whiteSpace=wrap;html=1;" vertex="1" parent="7iN0deQ_qTOm1xtRBUHf-1">
          <mxGeometry x="380" y="435" width="10" height="10" as="geometry" />
        </mxCell>
        <mxCell id="7iN0deQ_qTOm1xtRBUHf-69" value="" style="rounded=0;whiteSpace=wrap;html=1;" vertex="1" parent="7iN0deQ_qTOm1xtRBUHf-1">
          <mxGeometry x="390" y="435" width="10" height="10" as="geometry" />
        </mxCell>
        <mxCell id="7iN0deQ_qTOm1xtRBUHf-70" value="" style="rounded=0;whiteSpace=wrap;html=1;" vertex="1" parent="7iN0deQ_qTOm1xtRBUHf-1">
          <mxGeometry x="400" y="435" width="10" height="10" as="geometry" />
        </mxCell>
        <mxCell id="7iN0deQ_qTOm1xtRBUHf-71" value="" style="rounded=0;whiteSpace=wrap;html=1;" vertex="1" parent="7iN0deQ_qTOm1xtRBUHf-1">
          <mxGeometry x="410" y="435" width="10" height="10" as="geometry" />
        </mxCell>
        <mxCell id="7iN0deQ_qTOm1xtRBUHf-72" value="" style="rounded=0;whiteSpace=wrap;html=1;" vertex="1" parent="7iN0deQ_qTOm1xtRBUHf-1">
          <mxGeometry x="420" y="435" width="10" height="10" as="geometry" />
        </mxCell>
        <mxCell id="7iN0deQ_qTOm1xtRBUHf-73" value="" style="rounded=0;whiteSpace=wrap;html=1;" vertex="1" parent="7iN0deQ_qTOm1xtRBUHf-1">
          <mxGeometry x="430" y="435" width="10" height="10" as="geometry" />
        </mxCell>
        <mxCell id="7iN0deQ_qTOm1xtRBUHf-74" value="" style="rounded=0;whiteSpace=wrap;html=1;" vertex="1" parent="7iN0deQ_qTOm1xtRBUHf-1">
          <mxGeometry x="440" y="435" width="10" height="10" as="geometry" />
        </mxCell>
        <mxCell id="7iN0deQ_qTOm1xtRBUHf-75" value="&lt;font style=&quot;font-size: 10px;&quot;&gt;1\(\times\)1&lt;/font&gt;" style="text;html=1;align=center;verticalAlign=middle;resizable=0;points=[];autosize=1;strokeColor=none;fillColor=none;" vertex="1" parent="7iN0deQ_qTOm1xtRBUHf-1">
          <mxGeometry x="100" y="380" width="70" height="30" as="geometry" />
        </mxCell>
        <mxCell id="7iN0deQ_qTOm1xtRBUHf-76" value="&lt;font style=&quot;font-size: 10px;&quot;&gt;1\(\times\)1&lt;/font&gt;" style="text;html=1;align=center;verticalAlign=middle;resizable=0;points=[];autosize=1;strokeColor=none;fillColor=none;" vertex="1" parent="7iN0deQ_qTOm1xtRBUHf-1">
          <mxGeometry x="50" y="395" width="70" height="30" as="geometry" />
        </mxCell>
        <mxCell id="7iN0deQ_qTOm1xtRBUHf-77" value="&lt;font style=&quot;font-size: 10px;&quot;&gt;1\(\times\)1&lt;/font&gt;" style="text;html=1;align=center;verticalAlign=middle;resizable=0;points=[];autosize=1;strokeColor=none;fillColor=none;" vertex="1" parent="7iN0deQ_qTOm1xtRBUHf-1">
          <mxGeometry x="100" y="439" width="70" height="30" as="geometry" />
        </mxCell>
        <mxCell id="Pcrt8qAOL_kZvUk5tPsX-0" value="" style="rounded=0;whiteSpace=wrap;html=1;fillColor=#E1D5E7;" vertex="1" parent="7iN0deQ_qTOm1xtRBUHf-1">
          <mxGeometry x="80" y="370" width="10" height="10" as="geometry" />
        </mxCell>
        <mxCell id="Pcrt8qAOL_kZvUk5tPsX-1" value="&lt;font face=&quot;Courier New&quot;&gt;=&lt;/font&gt;" style="text;html=1;align=center;verticalAlign=middle;resizable=0;points=[];autosize=1;strokeColor=none;fillColor=none;" vertex="1" parent="7iN0deQ_qTOm1xtRBUHf-1">
          <mxGeometry x="95" y="360" width="30" height="30" as="geometry" />
        </mxCell>
        <mxCell id="Pcrt8qAOL_kZvUk5tPsX-2" value="&lt;font style=&quot;font-size: 10px;&quot;&gt;1\(\times\)1&lt;/font&gt;" style="text;html=1;align=center;verticalAlign=middle;resizable=0;points=[];autosize=1;strokeColor=none;fillColor=none;" vertex="1" parent="7iN0deQ_qTOm1xtRBUHf-1">
          <mxGeometry x="50" y="345" width="70" height="30" as="geometry" />
        </mxCell>
        <mxCell id="Pcrt8qAOL_kZvUk5tPsX-3" value="&lt;font face=&quot;Courier New&quot;&gt;&lt;b&gt;0&lt;/b&gt;&lt;/font&gt;" style="text;html=1;align=center;verticalAlign=middle;resizable=0;points=[];autosize=1;strokeColor=none;fillColor=none;" vertex="1" parent="7iN0deQ_qTOm1xtRBUHf-1">
          <mxGeometry x="114" y="360" width="30" height="30" as="geometry" />
        </mxCell>
      </root>
    </mxGraphModel>
  </diagram>
</mxfile>
